<svg id="Layer_2" data-name="Layer 2" xmlns="http://www.w3.org/2000/svg" xmlns:xlink="http://www.w3.org/1999/xlink" viewBox="0 0 128 128"><defs><style>.cls-1{fill:none;}.cls-2{fill:#ffd082;}.cls-3{clip-path:url(#clip-path);}.cls-4{fill:#272727;}.cls-5{fill:url(#linear-gradient);}</style><clipPath id="clip-path"><path class="cls-1" d="M64.07,32.83a18.5,18.5,0,0,0-18.5,18.5V83.88h37V51.33A18.5,18.5,0,0,0,64.07,32.83Z"/></clipPath><linearGradient id="linear-gradient" x1="53.09" y1="107.44" x2="53.09" y2="83.88" gradientTransform="matrix(1, 0, -0.93, 1, 89.21, 0)" gradientUnits="userSpaceOnUse"><stop offset="0" stop-color="#fff"/><stop offset="0" stop-color="#ffd082" stop-opacity="0"/><stop offset="1" stop-color="#ffd082"/></linearGradient></defs><path class="cls-2" d="M64.07,32.83a18.5,18.5,0,0,0-18.5,18.5V83.88h37V51.33A18.5,18.5,0,0,0,64.07,32.83Z"/><g class="cls-3"><path class="cls-4" d="M74.16,29.93c-4.65-1.6-8.42,5.39-8.42,15.61V78.09l16.83,5.79V51.33C82.57,41.11,78.8,31.53,74.16,29.93Z"/></g><polygon class="cls-5" points="60.6 107.44 23.6 107.44 45.57 83.88 82.57 83.88 60.6 107.44"/></svg>